# xmcd
#
# Track frame offsets:
#   150
#   27970
#   42061
#   66098
#   87089
#
# Disc length: 1863 seconds
#
# Revision: 0
# Processed by: cddbd v1.5PL3 Copyright (c) Steve Scherf et al.
# Submitted via: Media_Universe 3.0
#
DISCID=33074505
DTITLE=EMILE  VOLEL - HASTA MANANA
DYEAR=1900
DGENRE=Dance
TTITLE0=HASTA MANANA
TTITLE1=MERCI
TTITLE2=POPOURI ESPAGNOL
TTITLE3=CUCURUCUCU
TTITLE4=POPOURI FRANCAIS
EXTD=
EXTT0=
EXTT1=
EXTT2=
EXTT3=
EXTT4=
PLAYORDER=
